<svg width="290" height="206" viewBox="0 0 290 206" fill="none" xmlns="http://www.w3.org/2000/svg">
<g filter="url(#filter0_d_449_181)">
<path fill-rule="evenodd" clip-rule="evenodd" d="M109.256 8.002C110.982 8.0516 112.551 9.01841 113.371 10.5382L129.637 40.6794C130.457 42.1992 130.404 44.0412 129.498 45.5114C128.592 46.9816 126.97 47.8568 125.244 47.8072L91.0081 46.8235C89.2818 46.7739 87.7131 45.8071 86.8929 44.2873C86.0727 42.7674 86.1256 40.9255 87.0317 39.4553L105.002 10.2978C105.908 8.82754 107.529 7.9524 109.256 8.002Z" fill="#36B361"/>
<path fill-rule="evenodd" clip-rule="evenodd" d="M43.7275 32.1412C44.9768 31.2384 46.6129 31.0707 48.0194 31.7012L75.9132 44.2055C77.3197 44.836 78.283 46.169 78.4402 47.7023C78.5975 49.2356 77.9247 50.7363 76.6754 51.6391L51.8995 69.5438C50.6502 70.4466 49.0141 70.6144 47.6076 69.9838C46.2011 69.3533 45.2378 68.0204 45.0806 66.487L41.9627 36.0781C41.8055 34.5448 42.4782 33.0441 43.7275 32.1412Z" fill="#36B361"/>
<path fill-rule="evenodd" clip-rule="evenodd" d="M9.24484 83.6071C9.71864 82.3156 10.8454 81.3749 12.2008 81.1395L39.0806 76.4704C40.4359 76.2349 41.8139 76.7405 42.6955 77.7965C43.5771 78.8526 43.8283 80.2988 43.3545 81.5903L33.9582 107.203C33.4844 108.495 32.3576 109.436 31.0023 109.671C29.6469 109.906 28.2689 109.401 27.3873 108.345L9.90383 87.4008C9.02226 86.3447 8.77105 84.8986 9.24484 83.6071Z" fill="#36B361"/>
<path fill-rule="evenodd" clip-rule="evenodd" d="M8.06734 138.697C7.82562 137.493 8.24446 136.252 9.16608 135.441L27.4437 119.353C28.3653 118.541 29.6497 118.283 30.813 118.676C31.9764 119.069 32.8419 120.052 33.0837 121.256L37.8774 145.129C38.1191 146.332 37.7003 147.574 36.7787 148.385C35.8571 149.196 34.5727 149.454 33.4093 149.061L10.3379 141.276C9.17461 140.884 8.30906 139.901 8.06734 138.697Z" fill="#36B361"/>
<path fill-rule="evenodd" clip-rule="evenodd" d="M33.5164 177.42C32.9321 176.695 32.7791 175.713 33.1151 174.844L39.7788 157.616C40.1148 156.747 40.8887 156.124 41.8091 155.981C42.7294 155.837 43.6563 156.196 44.2406 156.921L55.8289 171.306C56.4132 172.031 56.5662 173.013 56.2302 173.882C55.8942 174.751 55.1202 175.374 54.1999 175.518L35.948 178.361C35.0277 178.504 34.1007 178.146 33.5164 177.42Z" fill="#36B361"/>
<path fill-rule="evenodd" clip-rule="evenodd" d="M42.9844 118.96C42.9844 153.694 71.1415 181.851 105.875 181.851C114.39 181.85 121.82 178.34 129.573 174.676C138.032 170.679 146.877 166.5 157.938 166.5C168.998 166.5 177.843 170.679 186.302 174.676C194.055 178.34 201.485 181.85 210 181.851C244.734 181.851 272.891 153.694 272.891 118.96C272.891 84.2267 244.734 56.0696 210 56.0696H105.875C71.1415 56.0696 42.9844 84.2267 42.9844 118.96ZM114 92C114 87.5817 110.418 84 106 84C101.582 84 98 87.5817 98 92V111H79C74.5817 111 71 114.582 71 119C71 123.418 74.5817 127 79 127H98V146C98 150.418 101.582 154 106 154C110.418 154 114 150.418 114 146V127H133C137.418 127 141 123.418 141 119C141 114.582 137.418 111 133 111H114V92ZM222 143C222 149.627 216.627 155 210 155C203.373 155 198 149.627 198 143C198 136.373 203.373 131 210 131C216.627 131 222 136.373 222 143ZM234 131C240.627 131 246 125.627 246 119C246 112.373 240.627 107 234 107C227.373 107 222 112.373 222 119C222 125.627 227.373 131 234 131ZM222 95C222 101.627 216.627 107 210 107C203.373 107 198 101.627 198 95C198 88.3726 203.373 83 210 83C216.627 83 222 88.3726 222 95ZM186 131C192.627 131 198 125.627 198 119C198 112.373 192.627 107 186 107C179.373 107 174 112.373 174 119C174 125.627 179.373 131 186 131Z" fill="#4DFF8B"/>
</g>
<defs>
<filter id="filter0_d_449_181" x="8" y="8" width="264.891" height="178" filterUnits="userSpaceOnUse" color-interpolation-filters="sRGB">
<feFlood flood-opacity="0" result="BackgroundImageFix"/>
<feColorMatrix in="SourceAlpha" type="matrix" values="0 0 0 0 0 0 0 0 0 0 0 0 0 0 0 0 0 0 127 0" result="hardAlpha"/>
<feOffset dy="4"/>
<feColorMatrix type="matrix" values="0 0 0 0 0.117 0 0 0 0 0.1485 0 0 0 0 0.18 0 0 0 0.25 0"/>
<feBlend mode="normal" in2="BackgroundImageFix" result="effect1_dropShadow_449_181"/>
<feBlend mode="normal" in="SourceGraphic" in2="effect1_dropShadow_449_181" result="shape"/>
</filter>
</defs>
</svg>
